<?xml version="1.0" encoding="UTF-8"?> <svg xmlns="http://www.w3.org/2000/svg" width="80" height="51" viewBox="0 0 80 51" fill="none"><mask id="mask0" maskUnits="userSpaceOnUse" x="0" y="0" width="33" height="31"><path d="M0.635498 -3.05176e-05H32.5102V30.7486H0.635498V-3.05176e-05Z" fill="white"></path></mask><g mask="url(#mask0)"><path fill-rule="evenodd" clip-rule="evenodd" d="M9.82701 18.4486C4.74744 18.4336 0.635498 14.3096 0.635498 9.2239C0.635498 4.12975 4.76236 -0.00012207 9.85621 -0.00012207H9.86984H16.8353C16.0196 0.770657 15.5101 1.86286 15.5101 3.07455C15.5101 4.28689 16.0196 5.37845 16.8353 6.15053H9.85491C8.15783 6.15053 6.78264 7.52585 6.78264 9.2239C6.78264 10.9226 8.15783 12.2999 9.85491 12.2999H23.2596L23.2882 12.2986C28.3814 12.2986 32.5102 16.4284 32.5102 21.5239C32.5102 26.6174 28.3814 30.7486 23.2882 30.7486L23.2739 30.7473H3.70842C2.01199 30.7473 0.635498 29.3713 0.635498 27.6733C0.635498 25.9791 2.00355 24.6064 3.69349 24.5986H23.2882C24.9852 24.5986 26.3624 23.2213 26.3624 21.5239C26.3624 19.8252 24.9852 18.4486 23.2882 18.4486H9.82701Z" fill="white"></path></g><mask id="mask1" maskUnits="userSpaceOnUse" x="17" y="0" width="63" height="31"><path d="M17.0271 -3.05176e-05H79.1814V30.7485H17.0271V-3.05176e-05Z" fill="white"></path></mask><g mask="url(#mask1)"><path fill-rule="evenodd" clip-rule="evenodd" d="M39.9088 -0.000244141C48.3956 -0.000244141 55.2761 6.88352 55.2761 15.3744C55.2761 15.4868 55.2754 15.5985 55.2728 15.7101L55.2761 15.7153C55.2761 20.6218 59.2517 24.5985 64.1541 24.5985C69.0597 24.5985 73.0354 20.6218 73.0354 15.7153V3.58677V3.07378C73.0354 1.37638 74.4106 -0.000244141 76.1077 -0.000244141C77.8054 -0.000244141 79.1819 1.37638 79.1819 3.07378V15.7153C79.1819 24.0179 72.4539 30.7485 64.1541 30.7485C59.229 30.7485 54.8562 28.377 52.1162 24.7121C49.3074 28.3816 44.8846 30.7485 39.9088 30.7485H28.86C31.1262 29.3757 32.844 27.1913 33.6144 24.5985H39.9088C44.9625 24.5985 49.066 20.5309 49.1283 15.4887C49.1276 15.3459 49.1237 15.1907 49.1224 15.027C48.9394 10.0926 44.8846 6.14976 39.9088 6.14976H27.6146H20.1007C18.4029 6.14976 17.0271 4.77313 17.0271 3.07378C17.0271 1.37638 18.4029 -0.000244141 20.1007 -0.000244141H39.9088Z" fill="white"></path></g><mask id="mask2" maskUnits="userSpaceOnUse" x="49" y="0" width="7" height="9"><path d="M49.4934 -3.05176e-05H55.2758V8.68101H49.4934V-3.05176e-05Z" fill="white"></path></mask><g mask="url(#mask2)"><path fill-rule="evenodd" clip-rule="evenodd" d="M49.4934 1.62183C50.0113 0.656249 51.0302 -0.000244141 52.2023 -0.000244141C53.9 -0.000244141 55.2758 1.37638 55.2758 3.07443V8.68092C54.0324 5.82768 52.0179 3.38547 49.4934 1.62183Z" fill="white"></path></g><path fill-rule="evenodd" clip-rule="evenodd" d="M61.2637 15.3743C61.2637 17.0724 62.6395 18.4484 64.3372 18.4484C66.035 18.4484 67.4115 17.0724 67.4115 15.3743V3.07433C67.4115 2.24446 67.0831 1.49316 66.5496 0.939911C65.8312 3.33861 63.785 5.16199 61.2637 5.55615V15.3743Z" fill="white"></path><path fill-rule="evenodd" clip-rule="evenodd" d="M0.276367 40.8849L0.286102 39.6615L0.696257 39.6647L0.772188 40.4647L0.863045 40.5829C0.964286 40.6362 1.08045 40.6777 1.21155 40.7056C1.34264 40.7342 1.48542 40.7478 1.63923 40.7491C1.96307 40.7524 2.22006 40.679 2.41021 40.529C2.60037 40.3803 2.69641 40.1771 2.69771 39.9225C2.70096 39.5667 2.37063 39.2446 1.70737 38.955C1.63468 38.9232 1.57952 38.8991 1.54123 38.8829C1.06747 38.6745 0.754666 38.4797 0.601506 38.3004C0.449645 38.1212 0.374363 37.8907 0.37631 37.6069C0.379555 37.2089 0.528821 36.8881 0.823458 36.6446C1.11874 36.4011 1.50813 36.2803 1.99292 36.2842C2.18761 36.2855 2.38231 36.303 2.57765 36.3375C2.77364 36.3732 2.97288 36.4238 3.17601 36.4901L3.16822 37.568L2.80479 37.5654L2.70485 36.9011L2.60296 36.7855C2.516 36.7342 2.41995 36.6972 2.31546 36.6732C2.21163 36.6485 2.0987 36.6349 1.9767 36.6336C1.6866 36.6316 1.45621 36.705 1.28553 36.8543C1.11485 37.0037 1.02789 37.2082 1.02594 37.4654C1.02464 37.6537 1.08305 37.8108 1.20052 37.9342C1.31863 38.0582 1.58276 38.2102 1.99357 38.3868C2.03186 38.4037 2.08897 38.4271 2.1662 38.4576C2.56986 38.6186 2.86061 38.7881 3.03843 38.9667C3.13967 39.066 3.21495 39.1823 3.26492 39.3108C3.31489 39.44 3.33955 39.581 3.33826 39.7336C3.33501 40.1517 3.16822 40.4894 2.83789 40.7426C2.50756 40.9985 2.0708 41.1225 1.5276 41.1186C1.28553 41.1167 1.05774 41.0952 0.844225 41.0563C0.630061 41.0154 0.441208 40.9582 0.276367 40.8849Z" fill="white"></path><path fill-rule="evenodd" clip-rule="evenodd" d="M4.62939 36.3895L6.33361 36.4031L6.33231 36.681L5.90074 36.7193L5.78068 36.8161L5.76186 39.333C5.75797 39.82 5.85272 40.1739 6.04676 40.3947C6.24016 40.6148 6.55556 40.7265 6.98973 40.7297C7.42 40.7323 7.73476 40.6239 7.93335 40.4057C8.13129 40.1869 8.23253 39.8356 8.23642 39.3518L8.25524 36.8836L8.12415 36.7557L7.7075 36.6921L7.70945 36.4128L9.17874 36.4252L9.17679 36.7025L8.7582 36.7609L8.6323 36.8869L8.61283 39.4167C8.61023 39.7505 8.58428 40.0038 8.5356 40.181C8.48628 40.3563 8.4071 40.5109 8.29743 40.6414C8.15789 40.8057 7.96255 40.933 7.70945 41.0258C7.4557 41.1174 7.17144 41.1628 6.85474 41.1602C6.53544 41.1576 6.25054 41.1089 5.99939 41.0115C5.74953 40.9167 5.55548 40.7856 5.41855 40.6193C5.30887 40.4849 5.23164 40.3291 5.18621 40.1551C5.14143 39.9797 5.12002 39.7258 5.12261 39.3895L5.14273 36.8109L5.02462 36.7115L4.62744 36.6687L4.62939 36.3895Z" fill="white"></path><path fill-rule="evenodd" clip-rule="evenodd" d="M10.1267 41.0998L10.1287 40.8154L10.568 40.7848L10.6868 40.6861L10.7166 36.855L10.5992 36.7556L10.1611 36.7102L10.1631 36.4329L11.8601 36.4452L11.8582 36.7244L11.4617 36.7608L11.341 36.8595L11.3111 40.7894L12.8829 40.8017L12.9822 40.69L13.1081 39.8563L13.4677 39.8589L13.4586 41.1257L10.1267 41.0998Z" fill="white"></path><path fill-rule="evenodd" clip-rule="evenodd" d="M14.4822 41.1334L14.4841 40.849L14.8787 40.8178L14.9981 40.7191L15.028 36.8879L14.9099 36.7886L14.5166 36.7438L14.5185 36.4665L17.8491 36.4925L17.842 37.5068L17.4513 37.5035L17.3578 36.912L17.2624 36.8068L15.6542 36.7931L15.64 38.5529L16.7809 38.562L16.8802 38.4652L16.9528 37.9587L17.2806 37.9613L17.2689 39.4944L16.9399 39.4918L16.8763 38.9879L16.7783 38.8815L15.6374 38.8737L15.6231 40.8224L17.4863 40.8373L17.5856 40.7256L17.7109 40.0237L18.0697 40.0269L18.062 41.1613L14.4822 41.1334Z" fill="white"></path><path fill-rule="evenodd" clip-rule="evenodd" d="M18.8975 36.4992L20.5141 36.5128L20.5121 36.7901L20.1143 36.8291L20.0423 36.9057L21.0936 38.8265L22.276 36.9771L22.2118 36.8784L21.7887 36.8012L21.7906 36.5219L23.2099 36.5336L23.208 36.8109L22.7829 36.896L21.3175 39.2018L21.3058 40.768L21.4174 40.8687L21.8886 40.905L21.8867 41.1914L20.087 41.1765L20.0896 40.8921L20.5614 40.8622L20.675 40.7628L20.686 39.2895L19.3186 36.8492L18.8955 36.7784L18.8975 36.4992Z" fill="white"></path><path fill-rule="evenodd" clip-rule="evenodd" d="M23.938 41.2063L23.9399 40.9219L24.3572 40.87L24.4838 40.7382L24.5136 36.9615L24.4254 36.8622L23.9652 36.8167L23.9665 36.5395L25.443 36.5499L25.4417 36.7369L26.7221 40.2401L28.0694 36.7836L28.0713 36.57L29.5588 36.5823L29.5569 36.8609L29.1175 36.8973L29.0331 36.9966L29.0039 40.8278L29.0876 40.9265L29.5251 40.9641L29.5225 41.2492L27.8624 41.2375L27.865 40.9512L28.3231 40.9219L28.3913 40.8226L28.4218 36.8986L26.7416 41.2278L26.4424 41.2258L24.8907 36.944L24.8602 40.7414L24.9854 40.8745L25.4099 40.9323L25.4079 41.2187L23.938 41.2063Z" fill="white"></path><path fill-rule="evenodd" clip-rule="evenodd" d="M32.5572 37.2773L31.8563 39.2026L33.2594 39.2123L32.5572 37.2773ZM32.4547 36.5461L32.9129 36.5506L34.5457 40.9175L34.9636 41.0058L34.9617 41.2922L33.3821 41.2792L33.384 40.9948L33.8156 40.9643L33.8675 40.8649L33.3749 39.5337L31.735 39.5201L31.2301 40.8448L31.3002 40.9435L31.7519 40.9811L31.7493 41.2675L30.3877 41.2571L30.3896 40.9708L30.7901 40.8889L32.4547 36.5461Z" fill="white"></path><path fill-rule="evenodd" clip-rule="evenodd" d="M35.7817 41.2976L35.7837 41.0132L36.2088 40.9613L36.336 40.8294L36.3645 37.0528L36.2399 36.9535L35.7954 36.908L35.7973 36.6307L37.105 36.6398L37.1037 36.8139L39.4491 40.395L39.4738 37.1236L39.3498 36.9976L38.9325 36.932L38.9345 36.6548L40.3947 36.6652L40.3927 36.9444L39.9742 37.0022L39.8489 37.1262L39.8158 41.3294L39.3583 41.3262L36.7403 37.3548L36.713 40.8327L36.837 40.9665L37.2549 41.0236L37.253 41.31L35.7817 41.2976Z" fill="white"></path><path fill-rule="evenodd" clip-rule="evenodd" d="M45.263 37.0223L45.2319 41.0515L45.7822 41.0561C46.4156 41.0612 46.8907 40.8976 47.2067 40.5651C47.5228 40.2333 47.6831 39.7301 47.6883 39.0528C47.6935 38.3749 47.5429 37.8697 47.2334 37.5353C46.9257 37.2002 46.4513 37.032 45.814 37.0268L45.263 37.0223ZM45.8432 36.708C46.6571 36.7132 47.2872 36.9223 47.7331 37.3327C48.177 37.7411 48.397 38.3164 48.3911 39.058C48.3879 39.4703 48.3126 39.8359 48.1653 40.1548C48.0154 40.4736 47.7967 40.7424 47.5079 40.9574C47.3034 41.1099 47.0724 41.2184 46.8167 41.2833C46.5591 41.3476 46.2229 41.3781 45.8069 41.3749L44.0923 41.3625L44.0949 41.0762L44.4901 41.0457L44.6082 40.9489L44.6374 37.1171L44.52 37.0165L44.1267 36.9729L44.128 36.6937L45.8432 36.708Z" fill="white"></path><path fill-rule="evenodd" clip-rule="evenodd" d="M49.7444 41.4054L49.7463 41.121L50.1409 41.0898L50.2603 40.9911L50.2895 37.16L50.1721 37.0606L49.7788 37.0158L49.7807 36.7385L53.1113 36.7645L53.1042 37.7788L52.7128 37.7755L52.62 37.184L52.5246 37.0788L50.9164 37.0651L50.9015 38.8249L52.0424 38.834L52.1417 38.7372L52.2151 38.2307L52.5428 38.2333L52.5311 39.7664L52.2021 39.7639L52.1378 39.26L52.0398 39.1535L50.8989 39.1457L50.8846 41.0944L52.7485 41.11L52.8478 40.9976L52.9731 40.2957L53.3319 40.2989L53.3242 41.434L49.7444 41.4054Z" fill="white"></path><path fill-rule="evenodd" clip-rule="evenodd" d="M54.5686 41.4428L54.5705 41.1584L54.9878 41.1058L55.1163 40.9747L55.1455 37.1974L55.0566 37.0987L54.5952 37.0532L54.5978 36.7759L56.0742 36.7863L56.0723 36.9727L57.3534 40.4766L58.7007 37.0201L58.7026 36.8065L60.1901 36.8188L60.1875 37.0974L59.7488 37.1337L59.665 37.2324L59.6352 41.0636L59.7189 41.163L60.1557 41.2013L60.1537 41.4857L58.4936 41.474L58.4962 41.1876L58.9544 41.1584L59.0226 41.0591L59.0531 37.135L57.3728 41.4643L57.0737 41.4617L55.522 37.1798L55.4921 40.9772L55.6167 41.111L56.0411 41.1688L56.0392 41.4552L54.5686 41.4428Z" fill="white"></path><path fill-rule="evenodd" clip-rule="evenodd" d="M61.457 41.4961L61.459 41.2117L61.9042 41.1806L62.0236 41.0819L62.0534 37.2507L61.9353 37.1513L61.4914 37.1065L61.494 36.8293L63.2586 36.8416L63.256 37.1208L62.8115 37.1572L62.6914 37.2559L62.6616 41.0871L62.7803 41.1864L63.2255 41.2241L63.2236 41.5098L61.457 41.4961Z" fill="white"></path><path fill-rule="evenodd" clip-rule="evenodd" d="M65.7034 37.1796L65.6891 39.1159C65.7586 39.1192 65.8247 39.1211 65.8883 39.1224C65.9519 39.1244 66.0143 39.1257 66.0714 39.1257C66.501 39.1302 66.8151 39.0569 67.013 38.9056C67.209 38.7569 67.3096 38.5146 67.3122 38.1789C67.3135 37.8335 67.2149 37.5815 67.015 37.4244C66.8144 37.2672 66.4893 37.1867 66.0402 37.1828L65.7034 37.1796ZM64.5683 36.8517L66.34 36.8666C66.9079 36.8692 67.3284 36.9763 67.601 37.1828C67.8742 37.3893 68.0079 37.7049 68.0047 38.1283C68.0021 38.4289 67.9073 38.6757 67.7178 38.8679C67.5283 39.0601 67.246 39.1952 66.8722 39.2737C67.0455 39.3224 67.1908 39.3848 67.309 39.4627C67.4251 39.5393 67.5173 39.6335 67.5841 39.7478C67.6614 39.8724 67.7243 40.0575 67.7769 40.2991C67.8294 40.5413 67.871 40.7023 67.9034 40.7815C67.9709 40.9724 68.067 41.1023 68.1883 41.1718C68.311 41.2432 68.5141 41.2783 68.8016 41.2802L68.8626 41.2809L68.8607 41.5471C68.7568 41.5666 68.6614 41.5802 68.5725 41.5906C68.483 41.6004 68.3992 41.6036 68.3201 41.603C68.1598 41.603 68.0228 41.5841 67.908 41.5504C67.795 41.5179 67.6977 41.4672 67.6192 41.3971C67.455 41.2517 67.32 40.9666 67.2149 40.5458C67.1766 40.3926 67.1441 40.2789 67.1201 40.2043C67.0286 39.9211 66.9059 39.7244 66.7482 39.6133C66.5918 39.5036 66.3537 39.4471 66.0363 39.4452C65.9675 39.4445 65.8585 39.4471 65.7099 39.4536L65.6865 39.4569L65.6729 41.1114L65.7917 41.2101L66.1875 41.2478L66.1856 41.5322L64.532 41.5205L64.5339 41.2341L64.9298 41.203L65.0479 41.1062L65.0778 37.2744L64.9597 37.1737L64.5657 37.1309L64.5683 36.8517Z" fill="white"></path><path fill-rule="evenodd" clip-rule="evenodd" d="M69.8577 41.5608L69.8596 41.2764L70.2542 41.2452L70.3736 41.1465L70.4035 37.3153L70.2853 37.216L69.8921 37.1712L69.8947 36.8939L73.2246 36.9192L73.2168 37.9342L72.8261 37.9309L72.734 37.3394L72.6379 37.2342L71.0297 37.2205L71.0148 38.9803L72.1557 38.9894L72.2557 38.8926L72.3283 38.3861L72.6561 38.3887L72.6444 39.9218L72.3154 39.9192L72.2511 39.4147L72.1538 39.3089L71.0129 39.3011L70.9979 41.2498L72.8618 41.2647L72.9611 41.153L73.0863 40.4504L73.4452 40.4543L73.4374 41.5881L69.8577 41.5608Z" fill="white"></path><path fill-rule="evenodd" clip-rule="evenodd" d="M74.6553 41.5976L74.6572 41.3132L75.0966 41.2826L75.2147 41.1839L75.2445 37.3528L75.1277 37.2534L74.6897 37.208L74.6923 36.9307L76.3887 36.943L76.3861 37.2223L75.9902 37.2586L75.8695 37.358L75.839 41.2872L77.4115 41.2995L77.5101 41.1878L77.6354 40.3541L77.9949 40.3567L77.9858 41.6235L74.6553 41.5976Z" fill="white"></path><path fill-rule="evenodd" clip-rule="evenodd" d="M0.00194694 44.7574L1.70617 44.7711L1.70422 45.049L1.27265 45.0873L1.15324 45.1841L1.13442 47.7009C1.13052 48.188 1.22527 48.5419 1.41932 48.762C1.61336 48.9828 1.92812 49.0945 2.36229 49.0977C2.79256 49.1003 3.10732 48.9919 3.30591 48.7737C3.50384 48.5548 3.60573 48.2035 3.60963 47.7198L3.62845 45.2516L3.49671 45.1237L3.07941 45.0607L3.08201 44.7815L4.55195 44.7938L4.54935 45.0711L4.13206 45.1289L4.00486 45.2548L3.98539 47.7847C3.98279 48.1185 3.95748 48.3717 3.90881 48.549C3.85949 48.7243 3.78031 48.8789 3.67063 49.0094C3.5311 49.1737 3.33511 49.3009 3.08201 49.3938C2.82891 49.4854 2.544 49.5308 2.2273 49.5282C1.908 49.5256 1.6231 49.4769 1.37194 49.3795C1.12209 49.2847 0.928042 49.1535 0.791107 48.9873C0.681429 48.8529 0.603552 48.6971 0.558772 48.523C0.513992 48.3477 0.492576 48.0938 0.495172 47.7574L0.51529 45.1795L0.396527 45.0802L0 45.0367L0.00194694 44.7574Z" fill="white"></path><path fill-rule="evenodd" clip-rule="evenodd" d="M9.12915 49.4957L9.1311 49.2113L9.55618 49.1593L9.68273 49.0275L9.71129 45.2509L9.58733 45.1515L9.14278 45.1067L9.14408 44.8288L10.4518 44.8379L10.4505 45.0119L12.7959 48.5931L12.8212 45.3217L12.6972 45.1957L12.2793 45.1307L12.2812 44.8535L13.7415 44.8632L13.7395 45.1424L13.3216 45.2009L13.1957 45.3249L13.1632 49.5275L12.7044 49.5243L10.0864 45.5535L10.0598 49.0307L10.1844 49.1645L10.6017 49.2217L10.5997 49.508L9.12915 49.4957Z" fill="white"></path><path fill-rule="evenodd" clip-rule="evenodd" d="M18.4419 49.5679L18.4438 49.2835L18.889 49.2524L19.0085 49.1537L19.0377 45.3231L18.9202 45.2238L18.4763 45.1783L18.4782 44.9011L20.2435 44.914L20.2409 45.1933L19.7957 45.2296L19.6763 45.3283L19.6464 49.1589L19.7652 49.2582L20.2104 49.2959L20.2084 49.5816L18.4419 49.5679Z" fill="white"></path><path fill-rule="evenodd" clip-rule="evenodd" d="M24.6389 44.9477L26.2588 44.9613L26.2568 45.2386L25.8519 45.2769L25.7766 45.3743L27.057 48.8899L28.34 45.3938L28.2732 45.2951L27.8423 45.2516L27.8436 44.9724L29.2291 44.9841L29.2272 45.2613L28.7956 45.3399L27.1634 49.6691L26.6806 49.6659L25.0809 45.312L24.637 45.2269L24.6389 44.9477Z" fill="white"></path><path fill-rule="evenodd" clip-rule="evenodd" d="M33.6035 49.6846L33.6055 49.4002L34 49.3691L34.1195 49.2704L34.1487 45.4398L34.0312 45.3405L33.6379 45.2957L33.6399 45.0178L36.9704 45.0437L36.9626 46.0587L36.572 46.0554L36.4791 45.4639L36.3837 45.358L34.7749 45.345L34.7613 47.1041L35.9022 47.1132L36.0015 47.0165L36.0735 46.51L36.4019 46.5126L36.3902 48.0457L36.0612 48.0431L35.997 47.5385L35.8996 47.4327L34.7587 47.4249L34.7431 49.3736L36.607 49.3892L36.7069 49.2769L36.8315 48.5749L37.1911 48.5782L37.1833 49.7132L33.6035 49.6846Z" fill="white"></path><path fill-rule="evenodd" clip-rule="evenodd" d="M43.0923 45.4093L43.0774 47.345C43.1475 47.3483 43.2137 47.3502 43.2779 47.3515C43.3409 47.3535 43.4025 47.3548 43.4603 47.3554C43.8906 47.3593 44.2047 47.2859 44.402 47.1353C44.5979 46.9859 44.6979 46.7437 44.7005 46.4087C44.7031 46.0632 44.6051 45.8106 44.4039 45.6541C44.204 45.497 43.8789 45.4165 43.4285 45.4126L43.0923 45.4093ZM41.9572 45.0814L43.729 45.0957C44.2968 45.0989 44.718 45.2061 44.9906 45.4126C45.2619 45.6184 45.3962 45.9346 45.3929 46.358C45.391 46.6587 45.2949 46.9048 45.1054 47.097C44.9172 47.2892 44.6349 47.4243 44.2618 47.5028C44.4351 47.5522 44.5804 47.6145 44.6979 47.6918C44.8147 47.7684 44.9069 47.8626 44.9731 47.9769C45.0503 48.1022 45.1139 48.2866 45.1658 48.5288C45.2184 48.7704 45.2599 48.9314 45.2917 49.0106C45.3605 49.2015 45.4552 49.3314 45.5773 49.4015C45.6986 49.4723 45.9037 49.508 46.1905 49.51H46.2522L46.2502 49.7762C46.1458 49.7957 46.0491 49.8093 45.9608 49.8191C45.8725 49.8294 45.7882 49.8327 45.7096 49.8327C45.5493 49.832 45.4118 49.8139 45.2969 49.7794C45.1833 49.747 45.0873 49.6963 45.0088 49.6262C44.8446 49.4814 44.7102 49.1963 44.6051 48.7749C44.5655 48.6217 44.533 48.508 44.509 48.4333C44.4182 48.1502 44.2949 47.9528 44.1378 47.8424C43.9814 47.7327 43.7432 47.6768 43.4246 47.6743C43.3571 47.6736 43.2481 47.6762 43.0988 47.682L43.0748 47.6859L43.0625 49.3405L43.1806 49.4392L43.5771 49.4768L43.5751 49.7613L41.9209 49.7496L41.9235 49.4632L42.3181 49.432L42.4375 49.3353L42.4667 45.5041L42.3486 45.4035L41.9553 45.3606L41.9572 45.0814Z" fill="white"></path><path fill-rule="evenodd" clip-rule="evenodd" d="M50.9116 49.679L50.922 48.4556L51.3315 48.4588L51.4081 49.2588L51.4977 49.3777C51.6002 49.4303 51.7157 49.4718 51.8468 49.4997C51.9785 49.5283 52.12 49.5419 52.2751 49.5432C52.599 49.5465 52.8553 49.4738 53.0455 49.3231C53.2356 49.1751 53.3317 48.9712 53.333 48.7166C53.3362 48.3608 53.0072 48.0387 52.3426 47.7497C52.2712 47.7173 52.2154 47.6932 52.1771 47.677C51.7034 47.4686 51.3899 47.2738 51.2374 47.0952C51.0855 46.9153 51.0096 46.6854 51.0116 46.401C51.0148 46.0036 51.1647 45.6828 51.46 45.4387C51.754 45.1952 52.1434 45.0751 52.6288 45.0789C52.8229 45.0809 53.0176 45.0978 53.2136 45.1322C53.4102 45.1679 53.6081 45.2179 53.8126 45.2841L53.8035 46.3627L53.4401 46.3601L53.3395 45.6958L53.2395 45.5803C53.1506 45.5283 53.0559 45.4919 52.952 45.4673C52.8469 45.4432 52.7346 45.429 52.6113 45.4283C52.3219 45.4257 52.0915 45.4997 51.9214 45.6497C51.7501 45.7978 51.6631 46.003 51.6612 46.2601C51.6599 46.4478 51.7183 46.6056 51.8358 46.7283C51.9539 46.8523 52.2193 47.0043 52.6288 47.1809C52.6671 47.1984 52.7249 47.2212 52.8015 47.2517C53.2051 47.4134 53.4959 47.5822 53.6737 47.7608C53.7749 47.8608 53.8496 47.9764 53.9002 48.1049C53.9508 48.2341 53.9755 48.3751 53.9742 48.5277C53.9703 48.9458 53.8035 49.2835 53.4725 49.5374C53.1428 49.7926 52.7074 49.9166 52.1642 49.9127C51.9221 49.9108 51.693 49.89 51.4788 49.8504C51.266 49.8095 51.0765 49.7523 50.9116 49.679Z" fill="white"></path><path fill-rule="evenodd" clip-rule="evenodd" d="M58.9163 49.88L58.9182 49.5956L59.3634 49.565L59.4828 49.4663L59.512 45.6352L59.3946 45.5358L58.9507 45.4904L58.9533 45.2131L60.7178 45.2267L60.7152 45.5053L60.2707 45.5417L60.15 45.6404L60.1208 49.4715L60.2395 49.5709L60.6847 49.6079L60.6828 49.8936L58.9163 49.88Z" fill="white"></path><path fill-rule="evenodd" clip-rule="evenodd" d="M65.3864 45.2622L69.3146 45.2934L69.3056 46.3622L68.922 46.359L68.8324 45.7129L68.7345 45.607L67.6714 45.5999L67.6422 49.5291L67.7558 49.6298L68.2237 49.6661L68.2218 49.9525L66.4053 49.9376L66.4072 49.6532L66.8732 49.6226L66.9932 49.5239L67.0224 45.5947L65.962 45.5856L65.8608 45.6902L65.7582 46.335L65.3779 46.3317L65.3864 45.2622Z" fill="white"></path><mask id="mask3" maskUnits="userSpaceOnUse" x="73" y="45" width="5" height="6"><path d="M73.6426 45.3256H77.9583V50.0175H73.6426V45.3256Z" fill="white"></path></mask><g mask="url(#mask3)"><path fill-rule="evenodd" clip-rule="evenodd" d="M73.6452 45.3256L75.2618 45.3393L75.2592 45.6165L74.862 45.6555L74.7906 45.7328L75.8407 47.6529L77.0231 45.8035L76.9595 45.7048L76.5357 45.6269L76.5383 45.3477L77.9583 45.36L77.9557 45.6373L77.53 45.7224L76.0652 48.0276L76.0535 49.5938L76.1652 49.6944L76.6363 49.7315L76.6344 50.0178L74.8348 50.0029L74.8367 49.7185L75.3092 49.688L75.4221 49.5893L75.4338 48.1159L74.0664 45.6756L73.6426 45.6048L73.6452 45.3256Z" fill="white"></path></g><path fill-rule="evenodd" clip-rule="evenodd" d="M44.353 10.9944C44.2751 10.8191 43.447 10.5665 43.312 10.5269C42.543 10.3035 41.7058 10.2834 40.9179 10.4489C40.7524 10.4886 40.1781 10.6437 40.0613 10.7217C40.1002 10.7996 40.4117 11.1795 40.4799 11.2775L40.7038 11.5405C40.8887 11.7645 41.3164 12.2996 41.4825 12.4652L41.8129 12.8347C41.8713 12.8158 41.92 12.7665 41.9784 12.7275C42.027 12.6795 42.0757 12.6399 42.1341 12.6015C42.1925 12.5522 42.2315 12.523 42.2899 12.4743C42.3483 12.436 42.3872 12.4067 42.4359 12.358L42.7474 12.1236C43.0687 11.8808 43.3406 11.6665 43.6813 11.4139C43.7981 11.3353 44.2362 11.034 44.353 10.9944Z" fill="white"></path><path fill-rule="evenodd" clip-rule="evenodd" d="M43.6619 15.493C43.6224 15.3858 43.3699 15.1521 43.292 15.0644L42.9026 14.6553L42.4256 15.1034C42.3867 15.1423 42.3581 15.1618 42.3192 15.191C42.29 15.2202 42.2699 15.2495 42.2316 15.2884C42.192 15.3274 42.1537 15.3371 42.1245 15.3858C42.2212 15.5612 42.7761 16.0969 42.8741 16.1644L43.5062 15.6293L43.5549 15.5806C43.6035 15.5514 43.6224 15.5319 43.6619 15.493Z" fill="white"></path><path fill-rule="evenodd" clip-rule="evenodd" d="M42.5428 16.486C42.5233 16.4081 42.2507 16.1451 42.1923 16.0769C42.1242 15.999 41.8905 15.7269 41.8127 15.688C41.7056 15.7555 41.4531 16.0282 41.3551 16.1256C41.3259 16.1646 41.2967 16.2035 41.2584 16.2425L41.0339 16.4665C40.9956 16.5152 40.9664 16.5152 40.9177 16.5737C40.9664 16.71 41.3065 17.0217 41.4434 17.1581C41.5115 17.2263 41.5304 17.2646 41.6374 17.3334C41.6959 17.3139 41.7056 17.2743 41.7543 17.2263C41.9295 17.0412 42.3968 16.662 42.5428 16.486Z" fill="white"></path><path fill-rule="evenodd" clip-rule="evenodd" d="M42.65 14.373C42.6397 14.3438 42.5722 14.2763 42.5527 14.2464C42.5138 14.2172 42.5235 14.2172 42.4943 14.1782L42.4359 14.1198L41.794 13.3704C41.6662 13.4678 41.1905 13.8964 41.1223 13.9834C41.0737 14.0328 41.0055 14.062 40.9763 14.149L41.5013 14.7529C41.5409 14.8016 41.8038 15.0646 41.8622 15.0841L42.65 14.373Z" fill="white"></path><path fill-rule="evenodd" clip-rule="evenodd" d="M41.5306 15.3471C41.3651 15.1133 41.1996 14.9672 41.0342 14.7529C40.9764 14.675 40.781 14.4321 40.7136 14.3925C40.6545 14.4217 40.5182 14.5588 40.4702 14.6062L40.0029 15.0841C39.9153 15.1711 39.8472 15.2204 39.7693 15.3367C39.7985 15.3951 39.9153 15.5315 39.964 15.5711C40.0321 15.6386 40.1003 15.7458 40.1684 15.8049C40.2463 15.8925 40.5279 16.2139 40.5967 16.2425L41.0835 15.8049C41.1315 15.7458 41.5014 15.425 41.5306 15.3471Z" fill="white"></path><path fill-rule="evenodd" clip-rule="evenodd" d="M41.3165 17.6642C41.2775 17.5863 41.1996 17.5278 41.151 17.4603L40.8881 17.1674C40.8492 17.1187 40.6448 16.9045 40.6058 16.8947C40.5864 16.9337 40.5286 16.9921 40.4903 17.0311C40.3534 17.1674 40.1399 17.4109 40.0516 17.4889L39.925 17.635C39.9056 17.6642 39.8861 17.6739 39.8569 17.6934L39.3702 18.2486C39.341 18.2778 39.3312 18.2778 39.3118 18.3064C39.2826 18.3356 39.2826 18.3551 39.2534 18.3746C39.1268 18.4915 38.7186 19.0077 38.6699 19.1051C38.6894 19.1246 38.6699 19.1148 38.6894 19.1246C38.7764 19.2025 39.3312 19.6311 39.4188 19.6311C39.4578 19.6311 39.5551 19.5142 39.5746 19.485L39.8764 19.1441C39.9543 19.0759 39.9737 19.0272 40.0419 18.9687L41.3165 17.6642Z" fill="white"></path><path fill-rule="evenodd" clip-rule="evenodd" d="M46.1826 17.9756L45.043 16.8762C44.8106 16.6619 44.3239 16.1353 44.2168 16.0385C44.1188 15.9502 44.0117 15.8041 43.9339 15.7554C43.8956 15.7749 43.8755 15.795 43.8372 15.8243C43.71 15.921 43.2732 16.3398 43.1746 16.4665C43.2141 16.5548 43.5159 16.8269 43.6139 16.9145C43.6613 16.9632 43.7009 17.0126 43.7593 17.0606C43.9442 17.2256 44.3531 17.6353 44.5186 17.7613C44.6348 17.8587 44.9171 18.1411 45.054 18.2483L45.618 18.7165C45.7348 18.6574 46.143 18.1119 46.1826 17.9756Z" fill="white"></path><path fill-rule="evenodd" clip-rule="evenodd" d="M40.3043 16.564C40.2945 16.5055 40.0901 16.2529 40.0226 16.1841C39.9246 16.0672 39.5846 15.6393 39.4872 15.5997C39.458 15.6588 39.312 15.775 39.2536 15.8529L38.65 16.5153C38.4755 16.6906 38.2996 16.9146 38.1257 17.0997C38.0958 17.1289 38.0763 17.1387 38.0569 17.1679C38.0186 17.2062 37.979 17.2549 37.94 17.3042C37.8135 17.4698 37.7551 17.5568 37.5896 17.7029C37.6285 17.8685 37.8038 18.112 37.8823 18.2192C37.9595 18.3166 38.1925 18.5991 38.2327 18.677C38.3093 18.6478 38.5235 18.4335 38.5722 18.375L38.689 18.2289C38.7961 18.0926 38.9421 17.9465 39.0686 17.8198C39.0881 17.8004 39.1076 17.7809 39.1277 17.7517C39.166 17.7029 39.2146 17.6542 39.2536 17.6153L39.3801 17.4887L40.0324 16.827C40.1193 16.74 40.2076 16.6224 40.3043 16.564Z" fill="white"></path><path fill-rule="evenodd" clip-rule="evenodd" d="M41.5599 13.0877C41.521 13 40.2561 11.2578 40.0419 10.9364C40.0036 10.878 39.9641 10.8383 39.9349 10.7896C39.6623 10.8286 38.7764 11.4429 38.7875 11.5202L39.0107 11.8124C39.3994 12.2806 39.7791 12.7767 40.188 13.2637L40.6838 13.8286C40.7915 13.7793 41.3847 13.2052 41.5599 13.0877Z" fill="white"></path><path fill-rule="evenodd" clip-rule="evenodd" d="M45.2186 19.1348C45.1894 19.0666 45.1219 19.0276 45.0823 18.9789L44.6151 18.5504C44.5664 18.501 44.5281 18.4627 44.469 18.4043L44.2451 18.1906C44.1199 18.0835 44.0803 18.0348 44.0128 17.9757C43.7986 17.7815 43.419 17.3426 43.2139 17.1478C43.136 17.0802 43.0685 17.0315 42.9803 16.9244C42.9329 16.8659 42.8933 16.8263 42.8148 16.788C42.698 16.914 42.0172 17.5672 41.9685 17.664C42.0561 17.8108 42.3774 18.1023 42.524 18.2289C42.5623 18.2672 42.5824 18.2971 42.611 18.3263L43.1068 18.7841C43.1464 18.8133 43.1555 18.8426 43.1944 18.8718L44.1971 19.7478C44.2555 19.7867 44.2646 19.7867 44.3237 19.7575C44.5761 19.6114 44.7805 19.475 45.0044 19.3004L45.2186 19.1348Z" fill="white"></path><path fill-rule="evenodd" clip-rule="evenodd" d="M46.4938 13.3122C46.4744 13.1174 45.9779 12.3382 45.8027 12.1823C45.7242 12.2122 45.5398 12.368 45.4723 12.4258L44.6644 13.1076C44.4697 13.2726 44.0121 13.6336 43.8467 13.7992L43.5254 14.0713C43.4482 14.1492 43.273 14.3044 43.2236 14.3732C43.2918 14.4998 43.3989 14.5778 43.4962 14.6752L43.7882 14.9765C43.8467 15.0349 43.944 15.1037 43.9732 15.1817C44.0998 15.1421 45.0343 14.3732 45.2186 14.2271C45.3159 14.1388 45.4237 14.0713 45.5301 13.9934L46.1726 13.5453C46.2213 13.507 46.2797 13.468 46.3284 13.4291C46.3868 13.3797 46.4354 13.3511 46.4938 13.3122Z" fill="white"></path><path fill-rule="evenodd" clip-rule="evenodd" d="M40.4311 14.0522C40.4116 13.984 40.3824 13.9548 40.3337 13.8963L39.7594 13.1463C39.4478 12.7282 38.9423 12.0074 38.7281 11.5587C38.5042 11.6366 37.6385 12.7282 37.6768 12.845C37.7066 12.9119 38.3193 13.6528 38.3679 13.7204C38.4945 13.8671 39.3609 14.9288 39.4576 14.9769L39.7107 14.7528C39.7594 14.7041 39.7983 14.6853 39.847 14.6463L40.4311 14.0522Z" fill="white"></path><path fill-rule="evenodd" clip-rule="evenodd" d="M43.6914 20.0302L43.448 19.7769C43.3506 19.6899 43.2721 19.6113 43.1852 19.5237L42.6115 18.96C42.592 18.9308 42.5719 18.9107 42.5427 18.8905C42.3681 18.7256 42.1831 18.5698 42.0274 18.3847C42.0073 18.3555 41.9982 18.3366 41.9781 18.3165C41.9488 18.2873 41.93 18.2776 41.9106 18.2581C41.8522 18.2003 41.7055 18.0243 41.6276 18.0048C41.5601 18.0931 41.4913 18.1607 41.4141 18.2295C41.3258 18.297 41.2772 18.3944 41.1902 18.4626C41.1032 18.5405 40.6541 19.0665 40.5483 19.1827C40.5094 19.2321 40.4802 19.2607 40.4413 19.2996C40.3926 19.3483 40.3822 19.3678 40.3342 19.4165C40.2563 19.5042 39.9545 19.8743 39.9351 19.923C40.0421 20.0009 40.6068 20.1665 40.7722 20.2061C41.4433 20.3711 42.1345 20.4003 42.8146 20.284C42.9905 20.2542 43.6031 20.1276 43.6914 20.0302Z" fill="white"></path><path fill-rule="evenodd" clip-rule="evenodd" d="M43.7299 11.6862C43.3308 12.0174 42.9129 12.3972 42.5241 12.7076L42.0757 13.0979C42.0952 13.1758 42.2217 13.3018 42.2704 13.3706L42.9615 14.1011C43.068 14.0615 43.2043 13.9161 43.3016 13.8375L43.6423 13.5849C43.7591 13.507 43.8766 13.4193 43.9837 13.331L45.6276 12.1336C45.6665 12.0953 45.6665 12.0953 45.7158 12.0758C45.6568 11.9687 45.355 11.6862 45.2291 11.5687C45.1992 11.5394 45.1798 11.5304 45.1506 11.5102C45.0435 11.4128 44.6638 11.092 44.4892 11.0524L43.7299 11.6862Z" fill="white"></path><path fill-rule="evenodd" clip-rule="evenodd" d="M39.2149 15.2298C39.1753 15.1421 39.0786 15.035 39.0202 14.9473C38.6989 14.4707 38.3381 13.994 38.0181 13.5161C37.95 13.4187 37.8812 13.322 37.8137 13.2239C37.7845 13.1856 37.7449 13.1272 37.7157 13.0876C37.6969 13.0583 37.6871 13.0389 37.6677 13.02C37.6579 13.0096 37.6378 12.9804 37.6378 12.9804L37.5898 12.9427C37.5119 13.1168 37.4535 13.1856 37.3562 13.4479C37.288 13.6142 37.2199 13.8181 37.1712 14.0031C37.0544 14.422 36.9856 14.8603 36.9856 15.3181C36.9856 15.7272 37.1219 16.9337 37.336 17.1583L37.5703 16.9239C37.6677 16.846 37.7157 16.7681 37.7942 16.6804L38.2712 16.1934C38.3485 16.0966 38.4069 16.0382 38.5042 15.9505C38.5334 15.9213 38.5334 15.9122 38.5626 15.8928C38.5918 15.8635 38.5918 15.8531 38.621 15.8239L39.0974 15.3473C39.1272 15.3181 39.1954 15.2492 39.2149 15.2298Z" fill="white"></path><path fill-rule="evenodd" clip-rule="evenodd" d="M46.5615 13.4776C46.4648 13.5263 45.8314 14.0718 45.6854 14.1887C45.6562 14.2179 45.6464 14.227 45.6172 14.2471L44.2751 15.4439C44.3134 15.5127 44.8106 15.9893 44.9267 16.0965L45.8126 16.9244C45.8418 16.9439 45.8606 16.9536 45.8898 16.9822L46.0942 17.1582C46.1526 17.2069 46.3863 17.4406 46.4648 17.4497C46.727 17.0997 46.9223 16.0478 46.9314 15.5218C46.9412 15.1328 46.9223 14.7627 46.8535 14.4023C46.8049 14.1679 46.679 13.614 46.5615 13.4776Z" fill="white"></path></svg> 